<svg xmlns="http://www.w3.org/2000/svg" width="64" height="64" viewBox="0 0 64 64" role="img" aria-labelledby="title desc">
  <title id="title">SeuSiteContabilidade</title>
  <desc id="desc">Monograma SC em teal para escritorio de contabilidade.</desc>
  <defs>
    <linearGradient id="teal" x1="8" y1="10" x2="56" y2="54" gradientUnits="userSpaceOnUse">
      <stop stop-color="#5eead4"/>
      <stop offset=".52" stop-color="#14b8a6"/>
      <stop offset="1" stop-color="#0f766e"/>
    </linearGradient>
    <filter id="shadow" x="-10%" y="-10%" width="120%" height="120%" color-interpolation-filters="sRGB">
      <feDropShadow dx="0" dy="3" stdDeviation="2" flood-color="#042f2e" flood-opacity=".55"/>
    </filter>
  </defs>

  <g filter="url(#shadow)">
    <path d="M37.5 11.8C32.8 8.9 26 8.4 20.8 10.9c-5.5 2.6-8.5 7.5-7.6 12.6.9 5.3 5.7 8.3 13.4 9.9l4.2.9c5.1 1.1 7.1 2.5 7.4 5 .3 2.8-2.3 5.1-6.6 5.7-4.7.7-9.7-.8-13.7-4.1L9.5 49.3c5.9 4.8 14.7 6.6 22.7 4.9 8.6-1.8 14.2-7.6 13.4-15.5-.6-6.5-5.6-10.6-14.4-12.3l-4.3-.8c-4.2-.8-6.1-2-6.4-4.2-.3-2.4 1.8-4.4 5.4-5 3.6-.6 7.5.4 10.7 2.7l7.4-7.3Z" fill="url(#teal)"/>
    <path d="M52.5 16.2c-4.5-4.6-10.6-7-17.4-7-13.5 0-24.4 10.1-24.4 22.8 0 12.7 10.9 22.8 24.4 22.8 6.7 0 12.9-2.4 17.4-7l-7.1-7.1c-2.6 2.7-6.1 4-10.1 4-7.3 0-13.1-5.6-13.1-12.7s5.8-12.7 13.1-12.7c4 0 7.5 1.3 10.1 4l7.1-7.1Z" fill="none" stroke="#ecfeff" stroke-width="4.6" stroke-linecap="round" stroke-linejoin="round"/>
    <path d="M22.5 38.6 29 32l5 4.8 8.3-10" fill="none" stroke="#042f2e" stroke-width="4.2" stroke-linecap="round" stroke-linejoin="round"/>
    <path d="M22.5 38.6 29 32l5 4.8 8.3-10" fill="none" stroke="#ccfbf1" stroke-width="2.5" stroke-linecap="round" stroke-linejoin="round"/>
  </g>
</svg>
